<?xml version="1.0" encoding="UTF-8" standalone="no"?>
<svg width="32px" height="32px" viewBox="0 0 32 32" version="1.1" xmlns="http://www.w3.org/2000/svg" xmlns:xlink="http://www.w3.org/1999/xlink" xmlns:sketch="http://www.bohemiancoding.com/sketch/ns">
    <!-- Generator: Sketch 3.0.4 (8053) - http://www.bohemiancoding.com/sketch -->
    <title>linkedin</title>
    <desc>Created with Sketch.</desc>
    <defs></defs>
    <g id="Page-1" stroke="none" stroke-width="1" fill="none" fill-rule="evenodd" sketch:type="MSPage">
        <g id="linkedin" sketch:type="MSArtboardGroup" fill="#EEEEEE">
            <g sketch:type="MSLayerGroup">
                <rect id="linkedin-bg" fill-opacity="0" sketch:type="MSShapeGroup" x="0" y="0" width="32" height="32"></rect>
                <path d="M21.081723,12.4987654 C20.0142244,12.4987654 18.9219002,12.2814815 17.7600644,14.0740741 L17.695518,14.0740741 L17.6359367,12.3407407 L14.6767311,12.3407407 C14.7214171,13.2790123 14.7263822,14.6864198 14.7263822,16.0197531 L14.7263822,23.7037037 L18.0679012,23.7037037 L18.0679012,17.1358025 C18.0679012,16.8296296 18.1125872,16.5234568 18.1969941,16.3061728 C18.4154589,15.6938272 18.9665862,15.0567901 19.8900966,15.0567901 C21.1015835,15.0567901 21.5831991,15.9950617 21.5831991,17.3777778 L21.5831991,23.7037037 L24.9247182,23.7037037 L24.9247182,16.9580247 C24.9296833,13.8074074 23.2812668,12.4987654 21.081723,12.4987654 L21.081723,12.4987654 Z M8.69873859,23.7037037 L12.0402576,23.7037037 L12.0402576,12.3407407 L8.69873859,12.3407407 L8.69873859,23.7037037 L8.69873859,23.7037037 Z M10.3719807,7.75308642 C9.2945518,7.75308642 8.58950617,8.47407407 8.61433172,9.43703704 C8.59447128,10.3555556 9.2945518,11.1012346 10.3521202,11.1012346 C11.4543747,11.1012346 12.1544552,10.3555556 12.1544552,9.43703704 C12.1296296,8.47901235 11.4494096,7.75308642 10.3719807,7.75308642 L10.3719807,7.75308642 Z" id="linkedin-shape" sketch:type="MSShapeGroup"></path>
            </g>
        </g>
    </g>
</svg>