<?xml version="1.0" encoding="UTF-8" standalone="no"?>
<!-- Created with Inkscape (http://www.inkscape.org/) -->

<svg
   xmlns:dc="http://purl.org/dc/elements/1.1/"
   xmlns:cc="http://creativecommons.org/ns#"
   xmlns:rdf="http://www.w3.org/1999/02/22-rdf-syntax-ns#"
   xmlns:svg="http://www.w3.org/2000/svg"
   xmlns="http://www.w3.org/2000/svg"
   xmlns:sodipodi="http://sodipodi.sourceforge.net/DTD/sodipodi-0.dtd"
   xmlns:inkscape="http://www.inkscape.org/namespaces/inkscape"
   width="26.901588"
   height="28.470242"
   id="svg2"
   version="1.1"
   inkscape:version="0.48.4 r9939"
   sodipodi:docname="career-ninja.svg">
  <defs
     id="defs4" />
  <sodipodi:namedview
     id="base"
     pagecolor="#ffffff"
     bordercolor="#666666"
     borderopacity="1.0"
     inkscape:pageopacity="0.0"
     inkscape:pageshadow="2"
     inkscape:zoom="32.000001"
     inkscape:cx="18.673194"
     inkscape:cy="13.995817"
     inkscape:document-units="px"
     inkscape:current-layer="layer1"
     showgrid="false"
     inkscape:snap-midpoints="false"
     fit-margin-top="1"
     fit-margin-left="1"
     fit-margin-right="1"
     fit-margin-bottom="1"
     inkscape:window-width="1855"
     inkscape:window-height="1056"
     inkscape:window-x="65"
     inkscape:window-y="24"
     inkscape:window-maximized="1" />
  <metadata
     id="metadata7">
    <rdf:RDF>
      <cc:Work
         rdf:about="">
        <dc:format>image/svg+xml</dc:format>
        <dc:type
           rdf:resource="http://purl.org/dc/dcmitype/StillImage" />
        <dc:title />
      </cc:Work>
    </rdf:RDF>
  </metadata>
  <g
     inkscape:label="Layer 1"
     inkscape:groupmode="layer"
     id="layer1"
     transform="translate(-52.130581,-91.689161)">
    <g
       id="g3112"
       transform="translate(73.262249,108.88846)">
      <g
         id="g3072">
        <path
           style="fill:#050306"
           d="m 3.7234552,-12.263461 0.7764097,0.435606 -1.3165208,0.653409 z m 1.0464652,0.907513 -0.3375695,0.689709 -1.9579025,0.9801141 0.3375694,-0.7260101 z M 4.0610247,-9.8676278 3.5884274,-8.9238143 1.6642817,-7.9800012 2.1031219,-8.9238143 z M 3.217101,-8.1615037 2.8795316,-7.4354936 0.95538597,-6.4916805 1.2929554,-7.1813901 z m -0.7088958,1.4883207 -0.7088957,1.4883207 0.6413819,0.363005 -0.3375695,0.6534091 -0.6076249,-0.363005 -1.45154848,3.0492424 -1.19728302,-0.5397818 1.46733856,-3.1628697 -0.67513888,-0.3630051 0.33756946,-0.6534091 0.74265273,0.4356061 z"
           id="path4397"
           inkscape:connector-curvature="0"
           sodipodi:nodetypes="ccccccccccccccccccccccccccccccc" />
      </g>
      <g
         id="g3076" />
      <g
         id="g3078" />
      <g
         id="g3080" />
      <g
         id="g3082" />
      <g
         id="g3084" />
      <g
         id="g3086" />
      <g
         id="g3088" />
      <g
         id="g3090" />
      <g
         id="g3092" />
      <g
         id="g3094" />
      <g
         id="g3096" />
      <g
         id="g3098" />
      <g
         id="g3100" />
      <g
         id="g3102" />
      <g
         id="g3104" />
    </g>
    <g
       id="g4169"
       transform="translate(52.755889,93.243402)">
      <g
         id="g4123">
        <g
           id="g4125">
          <path
             id="path4129"
             d="m 23.557,22.792 c -0.084,-1.835 -0.188,-4.743 -1.791,-7.122 0,0 -0.457,-0.623 -1.541,-1.037 0,0 -2.354,-0.717 -3.438,-1.492 l -0.495,0.339 0.055,3.218 -2.972,7.934 c -0.065,0.174 -0.231,0.289 -0.416,0.289 -0.185,0 -0.351,-0.115 -0.416,-0.289 L 9.572,16.698 c 0,0 0.055,-3.208 0.054,-3.218 C 9.633,13.507 9.13,13.141 9.13,13.141 8.048,13.916 5.693,14.633 5.693,14.633 4.609,15.047 4.152,15.67 4.152,15.67 2.55,18.049 2.444,20.957 2.36,22.792 c -0.058,1.268 0.208,1.741 0.542,1.876 4.146,1.664 15.965,1.664 20.112,0 0.336,-0.134 0.6,-0.608 0.543,-1.876 z"
             style="fill:#030104"
             inkscape:connector-curvature="0" />
          <path
             id="path4131"
             d="m 13.065,14.847 -0.134,0.003 c -0.432,0 -0.868,-0.084 -1.296,-0.232 l 1.178,1.803 -1.057,1.02 1.088,6.607 c 0.009,0.057 0.058,0.098 0.116,0.098 0.057,0 0.106,-0.041 0.116,-0.098 l 1.088,-6.607 -1.058,-1.02 1.161,-1.776 c -0.379,0.111 -0.78,0.185 -1.202,0.202 z"
             style="fill:#030104"
             inkscape:connector-curvature="0" />
        </g>
      </g>
      <g
         id="g4133" />
      <g
         id="g4135" />
      <g
         id="g4137" />
      <g
         id="g4139" />
      <g
         id="g4141" />
      <g
         id="g4143" />
      <g
         id="g4145" />
      <g
         id="g4147" />
      <g
         id="g4149" />
      <g
         id="g4151" />
      <g
         id="g4153" />
      <g
         id="g4155" />
      <g
         id="g4157" />
      <g
         id="g4159" />
      <g
         id="g4161" />
    </g>
    <g
       id="g3047"
       transform="matrix(0.33508965,0,0,0.36372655,60.005108,92.689161)"
       style="fill:#000000">
      <g
         id="g2997"
         style="fill:#000000">
        <g
           id="g2999"
           style="fill:#000000">
          <path
             id="path3001"
             d="m 22.539,24.107 c -1.712,0.163 -3.564,-1.934 -5.5,-1.934 -2.071,0 -4.048,2.083 -5.859,1.897 -4.958,-0.507 -8.674,-1.639 -9.671,-3.014 0.284,2.044 0.8368732,3.884801 1.487,5.768 0.2267315,0.656765 0.5156618,1.296079 0.838,1.918 2.9611464,5.713256 8.046034,7.676844 13.579034,7.676844 7.74,0 12.86338,-4.173185 15.156966,-15.362844 -1.022,1.41 -4.895,2.562 -10.031,3.051 z"
             style="fill:#000000"
             inkscape:connector-curvature="0"
             sodipodi:nodetypes="ssccasscs" />
          <path
             id="path3003"
             d="m 22.396,21.582 c 1.971,-0.377 1.928,-0.82 1.911,-0.989 -0.048,-0.451 -0.689,-0.451 -0.997,-0.451 -0.325,0 -0.712,0.031 -1.12,0.089 -0.353,0.051 -1.528,0.245 -1.835,0.665 -0.076,0.106 -0.107,0.229 -0.088,0.349 0.076,0.461 0.73,0.461 0.977,0.461 0.328,0.001 0.738,-0.044 1.152,-0.124 z"
             style="fill:#000000"
             inkscape:connector-curvature="0" />
          <path
             id="path3005"
             d="m 12.126,21.72 c 0.219,0 0.883,0 0.962,-0.461 0.021,-0.119 -0.01,-0.244 -0.086,-0.351 -0.296,-0.414 -1.387,-0.615 -1.714,-0.666 -0.376,-0.06 -0.735,-0.091 -1.039,-0.091 -0.274,0 -0.918,0 -0.979,0.453 -0.057,0.425 0.547,0.761 1.792,1.002 0.384,0.075 0.752,0.114 1.064,0.114 z"
             style="fill:#000000"
             inkscape:connector-curvature="0" />
          <path
             id="path3009"
             d="M 28.482,5.547 C 28.313,5.347 28.143,5.151 27.966,4.961 27.62,4.587 27.261,4.23 26.884,3.892 24.182,1.462 20.763,0 17.035,0 8.305,0 1.228,7.969 1.228,17.8 c 0,0.751 0.055,1.486 0.135,2.213 0.973,-1.683 7.612,-2.985 15.675,-2.985 8.063,0 14.703,1.302 15.672,2.983 0.08,-0.727 0.135,-1.462 0.135,-2.213 0.133574,-4.339362 -1.888124,-8.9820517 -4.363,-12.251 z"
             style="fill:#000000"
             inkscape:connector-curvature="0"
             sodipodi:nodetypes="cccsscsccc" />
        </g>
      </g>
      <g
         id="g3011"
         style="fill:#000000" />
      <g
         id="g3013"
         style="fill:#000000" />
      <g
         id="g3015"
         style="fill:#000000" />
      <g
         id="g3017"
         style="fill:#000000" />
      <g
         id="g3019"
         style="fill:#000000" />
      <g
         id="g3021"
         style="fill:#000000" />
      <g
         id="g3023"
         style="fill:#000000" />
      <g
         id="g3025"
         style="fill:#000000" />
      <g
         id="g3027"
         style="fill:#000000" />
      <g
         id="g3029"
         style="fill:#000000" />
      <g
         id="g3031"
         style="fill:#000000" />
      <g
         id="g3033"
         style="fill:#000000" />
      <g
         id="g3035"
         style="fill:#000000" />
      <g
         id="g3037"
         style="fill:#000000" />
      <g
         id="g3039"
         style="fill:#000000" />
    </g>
    <path
       style="fill:#050306"
       d="m 60.782593,95.577215 c -0.06784,-0.037 -0.28584,-0.40713 -0.35447,-0.43512 -0.122903,-0.051 -0.250594,-0.083 -0.355141,-0.074 -0.10774,0.01 -0.170787,0.054 -0.214681,0.135 -0.01915,0.035 -0.03591,0.079 -0.04868,0.126 0.0016,0.089 0.0056,0.174 0.01277,0.272 0.01037,0.118 0.02394,0.269 0.02474,0.403 0.0048,0.187 -0.0064,0.378 -0.03192,0.568 0.02314,0.167 0.05028,0.359 0.06305,0.542 0.05666,0.774 -0.05028,1.596 -0.357536,2.326 -0.304862,0.729995 -0.844357,1.326995 -1.465256,1.627995 -0.620898,0.317 -1.295267,0.351 -1.920156,0.237 -0.623292,-0.129 -1.225037,-0.367 -1.750167,-0.757 -0.260968,-0.196 -0.501187,-0.432 -0.714272,-0.703995 -0.212287,-0.271 -0.402227,-0.579 -0.540293,-0.941 0.317631,0.075 0.596158,0.183 0.866703,0.298 0.270546,0.115 0.527525,0.237 0.779715,0.361 0.25219,0.123 0.497995,0.25 0.746195,0.361997 0.249796,0.105998 0.502784,0.191998 0.754176,0.241998 0.505976,0.109 1.015943,0.087 1.471641,-0.112 0.454899,-0.195995 0.848348,-0.575995 1.114105,-1.094995 0.127691,-0.242 0.221863,-0.513 0.289699,-0.801 -0.23144,0.266 -0.513159,0.472 -0.814829,0.582 -0.468467,0.183 -0.960876,0.153 -1.403007,0.024 -0.440534,-0.144 -0.858723,-0.354 -1.204287,-0.685 -0.169989,-0.167 -0.319228,-0.365 -0.442131,-0.593 -0.120508,-0.227 -0.221065,-0.482 -0.266555,-0.783 0.245806,0.035 0.447717,0.103 0.639254,0.18 0.189941,0.076 0.365516,0.164 0.531514,0.258 0.168393,0.092 0.324017,0.194 0.482035,0.288 0.159614,0.088 0.321622,0.166 0.48363,0.217 0.323218,0.111 0.650427,0.135 0.948107,0.048 0.295286,-0.086 0.561841,-0.284 0.758964,-0.59 0.200316,-0.304 0.327209,-0.705 0.379083,-1.14 0.0032,-0.021 0.0048,-0.041 0.0072,-0.061 0.0024,-0.075 0.0088,-0.151 0.01676,-0.228 7.99e-4,-0.018 0.0016,-0.033 0.0024,-0.053 0.0024,-0.124 0.0088,-0.271 0.02075,-0.403 0.01357,-0.138 0.03272,-0.279 0.06943,-0.425 0.03911,-0.145 0.09337,-0.307 0.216276,-0.445 0.05986,-0.067 0.138865,-0.123 0.218672,-0.147 0.0806,-0.024 0.158017,-0.023 0.226651,-0.011 0.13647,0.029 0.243412,0.094 0.338382,0.164 0.208382,0.141284 0.581079,0.38968 0.735975,0.552344"
       id="path4401"
       inkscape:connector-curvature="0"
       sodipodi:nodetypes="cccccccccccccccscccccccccccccccccccccccccccc" />
  </g>
</svg>
